<svg width="110" height="49" viewBox="0 0 110 49" fill="none" xmlns="http://www.w3.org/2000/svg">
<path d="M0.323864 48V1.45454H16.0511C19.6875 1.45454 22.6723 2.07576 25.0057 3.31818C27.339 4.54545 29.0663 6.23485 30.1875 8.38636C31.3087 10.5379 31.8693 12.9848 31.8693 15.7273C31.8693 18.4697 31.3087 20.9015 30.1875 23.0227C29.0663 25.1439 27.3466 26.8106 25.0284 28.0227C22.7102 29.2197 19.7481 29.8182 16.142 29.8182H3.41477V24.7273H15.9602C18.4451 24.7273 20.4451 24.3636 21.9602 23.6364C23.4905 22.9091 24.5966 21.8788 25.2784 20.5455C25.9754 19.197 26.3239 17.5909 26.3239 15.7273C26.3239 13.8636 25.9754 12.2348 25.2784 10.8409C24.5814 9.44697 23.4678 8.37121 21.9375 7.61364C20.4072 6.84091 18.3845 6.45454 15.8693 6.45454H5.96023V48H0.323864ZM22.233 27.0909L33.6875 48H27.142L15.8693 27.0909H22.233ZM54.7955 48.7273C51.4318 48.7273 48.5303 47.9848 46.0909 46.5C43.6667 45 41.7955 42.9091 40.4773 40.2273C39.1742 37.5303 38.5227 34.3939 38.5227 30.8182C38.5227 27.2424 39.1742 24.0909 40.4773 21.3636C41.7955 18.6212 43.6288 16.4848 45.9773 14.9545C48.3409 13.4091 51.0985 12.6364 54.25 12.6364C56.0682 12.6364 57.8636 12.9394 59.6364 13.5455C61.4091 14.1515 63.0227 15.1364 64.4773 16.5C65.9318 17.8485 67.0909 19.6364 67.9545 21.8636C68.8182 24.0909 69.25 26.8333 69.25 30.0909V32.3636H42.3409V27.7273H63.7955C63.7955 25.7576 63.4015 24 62.6136 22.4545C61.8409 20.9091 60.7348 19.6894 59.2955 18.7955C57.8712 17.9015 56.1894 17.4545 54.25 17.4545C52.1136 17.4545 50.2652 17.9848 48.7045 19.0455C47.1591 20.0909 45.9697 21.4545 45.1364 23.1364C44.303 24.8182 43.8864 26.6212 43.8864 28.5455V31.6364C43.8864 34.2727 44.3409 36.5076 45.25 38.3409C46.1742 40.1591 47.4545 41.5455 49.0909 42.5C50.7273 43.4394 52.6288 43.9091 54.7955 43.9091C56.2045 43.9091 57.4773 43.7121 58.6136 43.3182C59.7652 42.9091 60.7576 42.303 61.5909 41.5C62.4242 40.6818 63.0682 39.6667 63.5227 38.4545L68.7045 39.9091C68.1591 41.6667 67.2424 43.2121 65.9545 44.5455C64.6667 45.8636 63.0758 46.8939 61.1818 47.6364C59.2879 48.3636 57.1591 48.7273 54.7955 48.7273ZM103.591 13.0909C103.318 10.7879 102.212 9 100.273 7.72727C98.3333 6.45454 95.9545 5.81818 93.1364 5.81818C91.0758 5.81818 89.2727 6.15151 87.7273 6.81818C86.197 7.48485 85 8.40151 84.1364 9.56818C83.2879 10.7348 82.8636 12.0606 82.8636 13.5455C82.8636 14.7879 83.1591 15.8561 83.75 16.75C84.3561 17.6288 85.1288 18.3636 86.0682 18.9545C87.0076 19.5303 87.9924 20.0076 89.0227 20.3864C90.053 20.75 91 21.0455 91.8636 21.2727L96.5909 22.5455C97.803 22.8636 99.1515 23.303 100.636 23.8636C102.136 24.4242 103.568 25.1894 104.932 26.1591C106.311 27.1136 107.447 28.3409 108.341 29.8409C109.235 31.3409 109.682 33.1818 109.682 35.3636C109.682 37.8788 109.023 40.1515 107.705 42.1818C106.402 44.2121 104.492 45.8258 101.977 47.0227C99.4773 48.2197 96.4394 48.8182 92.8636 48.8182C89.5303 48.8182 86.6439 48.2803 84.2045 47.2045C81.7803 46.1288 79.8712 44.6288 78.4773 42.7045C77.0985 40.7803 76.3182 38.5455 76.1364 36H81.9545C82.1061 37.7576 82.697 39.2121 83.7273 40.3636C84.7727 41.5 86.0909 42.3485 87.6818 42.9091C89.2879 43.4545 91.0152 43.7273 92.8636 43.7273C95.0152 43.7273 96.947 43.3788 98.6591 42.6818C100.371 41.9697 101.727 40.9848 102.727 39.7273C103.727 38.4545 104.227 36.9697 104.227 35.2727C104.227 33.7273 103.795 32.4697 102.932 31.5C102.068 30.5303 100.932 29.7424 99.5227 29.1364C98.1136 28.5303 96.5909 28 94.9545 27.5455L89.2273 25.9091C85.5909 24.8636 82.7121 23.3712 80.5909 21.4318C78.4697 19.4924 77.4091 16.9545 77.4091 13.8182C77.4091 11.2121 78.1136 8.93939 79.5227 7C80.947 5.04545 82.8561 3.5303 85.25 2.45454C87.6591 1.36363 90.3485 0.81818 93.3182 0.81818C96.3182 0.81818 98.9848 1.35606 101.318 2.43182C103.652 3.49242 105.5 4.94697 106.864 6.79545C108.242 8.64394 108.97 10.7424 109.045 13.0909H103.591Z" fill="#D38312"/>
</svg>
